<svg width="162" height="162" viewBox="0 0 162 162" fill="none" xmlns="http://www.w3.org/2000/svg">
<path d="M47.7593 23.2368L47.838 23.1913L41.1145 11.5197L41.0358 11.5652L47.7593 23.2368Z" fill="white" stroke="white" stroke-width="0.5" stroke-miterlimit="10"/>
<path d="M80.682 14.6155H80.7729V1.13827H80.682V14.6155Z" fill="white" stroke="white" stroke-width="0.5" stroke-miterlimit="10"/>
<path d="M113.945 23.5588L114.023 23.6044L120.747 11.9327L120.668 11.8872L113.945 23.5588Z" fill="white" stroke="white" stroke-width="0.5" stroke-miterlimit="10"/>
<path d="M138.192 47.8168L138.238 47.8957L149.883 41.1571L149.838 41.0782L138.192 47.8168Z" fill="white" stroke="white" stroke-width="0.5" stroke-miterlimit="10"/>
<path d="M147.417 81V81.0911H160.864V81H147.417Z" fill="white" stroke="white" stroke-width="0.5" stroke-miterlimit="10"/>
<path d="M138.395 114.164L138.35 114.242L149.995 120.981L150.041 120.902L138.395 114.164Z" fill="white" stroke="white" stroke-width="0.5" stroke-miterlimit="10"/>
<path d="M114.041 138.63L113.962 138.676L120.686 150.347L120.764 150.302L114.041 138.63Z" fill="white" stroke="white" stroke-width="0.5" stroke-miterlimit="10"/>
<path d="M80.9546 147.384H80.8637V160.862H80.9546V147.384Z" fill="white" stroke="white" stroke-width="0.5" stroke-miterlimit="10"/>
<path d="M47.8294 138.331L47.7508 138.286L41.0273 149.957L41.1059 150.003L47.8294 138.331Z" fill="white" stroke="white" stroke-width="0.5" stroke-miterlimit="10"/>
<path d="M23.3986 114.063L23.3532 113.984L11.7077 120.722L11.7532 120.801L23.3986 114.063Z" fill="white" stroke="white" stroke-width="0.5" stroke-miterlimit="10"/>
<path d="M14.5827 80.9545V80.8634H1.13571V80.9545H14.5827Z" fill="white" stroke="white" stroke-width="0.5" stroke-miterlimit="10"/>
<path d="M23.4216 47.9163L23.467 47.8374L11.8216 41.0988L11.7762 41.1777L23.4216 47.9163Z" fill="white" stroke="white" stroke-width="0.5" stroke-miterlimit="10"/>
<path d="M80.682 85.5076C83.768 85.5076 86.2698 83.0002 86.2698 79.9072C86.2698 76.8143 83.768 74.3069 80.682 74.3069C77.5959 74.3069 75.0942 76.8143 75.0942 79.9072C75.0942 83.0002 77.5959 85.5076 80.682 85.5076Z" fill="white" stroke="white" stroke-width="0.5" stroke-miterlimit="10"/>
<path d="M116.208 31.6442L78.3651 79.4519L82.2266 82.3204L116.208 31.6442Z" fill="white" stroke="white" stroke-width="0.1" stroke-miterlimit="10"/>
<path d="M102.215 117.152L85.0432 84.1872L82.272 85.7808L102.215 117.152Z" fill="white" stroke="white" stroke-width="0.1" stroke-miterlimit="10"/>
</svg>
